<?xml version="1.0" encoding="UTF-8" ?>
<!DOCTYPE svg PUBLIC "-//W3C//DTD SVG 1.1//EN" "http://www.w3.org/Graphics/SVG/1.1/DTD/svg11.dtd">
<svg width="838pt" height="838pt" viewBox="0 0 838 838" version="1.1" xmlns="http://www.w3.org/2000/svg">
<path fill="#eb7077" stroke="#eb7077" stroke-width="0.09375" opacity="1.00" d=" M 207.6 217.6 C 210.6 212.5 214.5 207.6 220.1 205.2 C 222.4 204.8 224.7 205.0 227.0 205.0 C 264.7 205.0 302.5 205.0 340.2 205.0 C 336.9 207.8 333.7 210.7 331.5 214.5 C 325.7 224.0 321.8 234.6 318.2 245.2 C 308.0 277.2 300.9 310.1 294.0 343.0 C 290.9 357.9 287.9 372.9 285.1 387.8 C 276.5 436.6 267.6 485.3 256.5 533.6 C 251.2 555.9 245.8 578.2 237.6 599.7 C 233.8 608.6 230.1 618.1 222.8 624.7 C 221.1 626.2 219.4 628.1 217.0 627.8 C 183.7 627.8 150.3 627.8 117.0 627.8 C 110.2 627.6 103.5 628.2 96.7 627.5 C 101.2 624.0 105.2 619.8 107.8 614.8 C 115.3 600.5 120.0 585.0 124.5 569.6 C 131.5 544.8 137.1 519.7 142.4 494.6 C 145.7 478.1 149.6 461.7 152.0 445.1 C 154.7 426.6 158.8 408.3 162.1 389.9 C 167.3 362.8 172.8 335.7 178.9 308.8 C 183.8 287.8 188.8 266.9 195.5 246.4 C 198.8 236.5 202.4 226.7 207.6 217.6 Z" />
<path fill="#f6a2ad" stroke="#f6a2ad" stroke-width="0.09375" opacity="1.00" d=" M 340.2 205.0 C 343.1 205.0 346.0 204.9 348.9 205.0 C 355.3 208.4 360.7 213.8 363.7 220.5 C 367.7 228.1 371.0 236.1 374.0 244.3 C 384.0 275.2 390.8 307.0 397.6 338.7 C 403.4 367.1 408.9 395.6 414.1 424.2 C 414.5 425.7 414.0 427.8 416.0 428.2 C 408.8 465.8 401.7 503.5 392.7 540.8 C 387.8 560.9 382.6 580.9 375.2 600.3 C 371.2 610.0 367.1 620.6 358.6 627.5 C 353.2 628.7 349.3 624.6 346.0 620.9 C 340.3 613.6 336.8 605.0 333.4 596.4 C 322.1 565.6 315.2 533.5 308.2 501.5 C 302.9 476.6 298.2 451.5 293.3 426.5 C 291.1 413.8 288.1 401.3 286.4 388.6 C 286.1 388.4 285.4 388.0 285.1 387.8 C 287.9 372.9 290.9 357.9 294.0 343.0 C 300.9 310.1 308.0 277.2 318.2 245.2 C 321.8 234.6 325.7 224.0 331.5 214.5 C 333.7 210.7 336.9 207.8 340.2 205.0 Z" />
<path fill="#eb7077" stroke="#eb7077" stroke-width="0.09375" opacity="1.00" d=" M 465.3 222.3 C 468.9 215.4 473.3 207.7 481.1 205.1 C 520.8 204.9 560.5 205.0 600.2 205.0 C 596.5 208.7 592.6 212.4 590.1 217.1 C 582.4 230.9 577.9 246.2 573.3 261.3 C 561.5 302.9 553.2 345.4 545.3 387.9 C 538.0 429.8 530.2 471.7 521.3 513.4 C 516.7 534.4 511.9 555.3 505.8 576.0 C 501.9 588.8 497.8 601.7 491.4 613.6 C 488.3 619.0 484.7 624.9 478.8 627.7 C 440.9 628.0 402.9 627.7 365.0 627.8 C 362.9 627.8 360.7 627.8 358.6 627.5 C 367.1 620.6 371.2 610.0 375.2 600.3 C 382.6 580.9 387.8 560.9 392.7 540.8 C 401.7 503.5 408.8 465.8 416.0 428.2 C 424.7 379.7 433.8 331.2 445.4 283.3 C 450.8 262.6 456.0 241.6 465.3 222.3 Z" />
<path fill="#f6a2ad" stroke="#f6a2ad" stroke-width="0.09375" opacity="1.00" d=" M 600.2 205.0 C 603.4 205.0 606.7 204.9 609.9 205.0 C 615.1 207.7 618.8 212.3 622.1 217.0 C 627.5 225.6 630.9 235.3 634.4 244.8 C 642.7 270.3 648.9 296.5 654.6 322.7 C 662.2 358.0 668.8 393.5 675.3 429.0 C 676.9 437.5 678.5 446.1 679.5 454.7 C 679.9 455.1 680.7 455.9 681.0 456.2 C 677.4 461.2 676.0 467.2 674.0 472.9 C 667.7 493.2 663.6 514.2 660.1 535.1 C 657.4 551.5 653.7 567.8 648.6 583.6 C 644.8 595.3 640.2 606.9 632.6 616.7 C 629.0 621.4 624.1 625.0 618.7 627.4 C 610.4 628.3 605.5 620.3 601.5 614.4 C 593.2 599.9 588.7 583.7 583.9 567.9 C 568.1 509.4 557.8 449.5 546.7 390.0 C 546.6 389.1 546.1 388.3 545.3 387.9 C 553.2 345.4 561.5 302.9 573.3 261.3 C 577.9 246.2 582.4 230.9 590.1 217.1 C 592.6 212.4 596.5 208.7 600.2 205.0 Z" />
<path fill="#f6a2ad" stroke="#f6a2ad" stroke-width="0.09375" opacity="1.00" d=" M 3.1 432.5 C 5.7 432.3 8.3 431.9 11.0 431.9 C 47.4 431.9 83.7 431.9 120.0 431.9 C 124.6 432.5 129.4 432.1 133.8 434.1 C 140.2 436.7 145.9 441.1 150.1 446.6 C 150.6 446.3 151.5 445.5 152.0 445.1 C 149.6 461.7 145.7 478.1 142.4 494.6 C 137.1 519.7 131.5 544.8 124.5 569.6 C 120.0 585.0 115.3 600.5 107.8 614.8 C 105.2 619.8 101.2 624.0 96.7 627.5 C 95.0 627.8 93.7 626.6 92.3 625.7 C 87.6 622.7 84.9 617.5 82.0 612.8 C 68.3 581.6 66.8 547.1 58.3 514.5 C 54.0 498.2 48.7 482.0 40.9 467.0 C 36.1 458.0 30.2 449.4 22.5 442.5 C 16.8 437.9 10.2 434.2 3.1 432.5 Z" />
<path fill="#eb7077" stroke="#eb7077" stroke-width="0.09375" opacity="1.00" d=" M 689.8 442.9 C 696.1 435.8 705.5 431.3 715.0 431.7 C 742.3 431.7 769.7 431.7 797.0 431.7 C 808.4 431.9 819.9 431.3 831.3 432.0 C 827.9 434.3 823.8 435.2 820.2 437.1 C 807.7 442.8 797.0 452.3 790.2 464.2 C 779.3 483.2 775.5 505.0 772.3 526.4 C 769.1 547.4 769.2 569.1 762.4 589.5 C 757.8 603.8 750.8 618.2 738.7 627.6 C 701.1 628.0 663.5 627.7 626.0 627.8 C 623.5 627.8 621.1 627.9 618.7 627.4 C 624.1 625.0 629.0 621.4 632.6 616.7 C 640.2 606.9 644.8 595.3 648.6 583.6 C 653.7 567.8 657.4 551.5 660.1 535.1 C 663.6 514.2 667.7 493.2 674.0 472.9 C 676.0 467.2 677.4 461.2 681.0 456.2 C 684.0 451.8 686.0 446.7 689.8 442.9 Z" />
</svg>
